ffmpeg version 3.4.8-0ubuntu0.2 Copyright (c) 2000-2020 the FFmpeg developers
  built with gcc 7 (Ubuntu 7.5.0-3ubuntu1~18.04)
  configuration: --prefix=/usr --extra-version=0ubuntu0.2 --toolchain=hardened --libdir=/usr/lib/x86_64-linux-gnu --incdir=/usr/include/x86_64-linux-gnu --enable-gpl --disable-stripping --enable-avresample --enable-avisynth --enable-gnutls --enable-ladspa --enable-libass --enable-libbluray --enable-libbs2b --enable-libcaca --enable-libcdio --enable-libflite --enable-libfontconfig --enable-libfreetype --enable-libfribidi --enable-libgme --enable-libgsm --enable-libmp3lame --enable-libmysofa --enable-libopenjpeg --enable-libopenmpt --enable-libopus --enable-libpulse --enable-librubberband --enable-librsvg --enable-libshine --enable-libsnappy --enable-libsoxr --enable-libspeex --enable-libssh --enable-libtheora --enable-libtwolame --enable-libvorbis --enable-libvpx --enable-libwavpack --enable-libwebp --enable-libx265 --enable-libxml2 --enable-libxvid --enable-libzmq --enable-libzvbi --enable-omx --enable-openal --enable-opengl --enable-sdl2 --enable-libdc1394 --enable-libdrm --enable-libiec61883 --enable-chromaprint --enable-frei0r --enable-libopencv --enable-libx264 --enable-shared
  libavutil      55. 78.100 / 55. 78.100
  libavcodec     57.107.100 / 57.107.100
  libavformat    57. 83.100 / 57. 83.100
  libavdevice    57. 10.100 / 57. 10.100
  libavfilter     6.107.100 /  6.107.100
  libavresample   3.  7.  0 /  3.  7.  0
  libswscale      4.  8.100 /  4.  8.100
  libswresample   2.  9.100 /  2.  9.100
  libpostproc    54.  7.100 / 54.  7.100
[rawvideo @ 0x55b7192c3a20] Estimating duration from bitrate, this may be inaccurate
Input #0, rawvideo, from '../../SVC-Encoder-20220109T061506Z-001/SVC-Encoder/Dataset/RollerCoaster/ERP_8x8/tile_yuv/Tile_59_480x240.yuv':
  Duration: 00:00:10.00, start: 0.000000, bitrate: 41472 kb/s
    Stream #0:0: Video: rawvideo (I420 / 0x30323449), yuv420p, 480x240, 41472 kb/s, 30 tbr, 30 tbn, 30 tbc
Stream mapping:
  Stream #0:0 -> #0:0 (rawvideo (native) -> h264 (libx264))
Press [q] to stop, [?] for help
[libx264 @ 0x55b7192d0c60] using cpu capabilities: MMX2 SSE2Fast LZCNT SSSE3 SSE4.2 AVX
[libx264 @ 0x55b7192d0c60] profile High, level 2.1
Output #0, rawvideo, to 'RollerCoaster_Tile_59_480x240_x264_QP_24.h264':
  Metadata:
    encoder         : Lavf57.83.100
    Stream #0:0: Video: h264 (libx264), yuv420p, 480x240, q=-1--1, 30 fps, 30 tbn, 30 tbc
    Metadata:
      encoder         : Lavc57.107.100 libx264
    Side data:
      cpb: bitrate max/min/avg: 0/0/0 buffer size: 0 vbv_delay: -1
frame=  199 fps=0.0 q=30.0 PSNR=Y:nan U:nan V:nan *:nan size=      60kB time=00:00:05.20 bitrate=  94.5kbits/s speed=10.4x    frame=  300 fps=0.0 q=30.0 LPSNR=Y:inf U:inf V:inf *:inf size=     115kB time=00:00:09.93 bitrate=  94.5kbits/s speed=12.1x    
video:115kB audio:0kB subtitle:0kB other streams:0kB global headers:0kB muxing overhead: 0.000000%
[libx264 @ 0x55b7192d0c60] frame I:2     Avg QP:22.68  size:  6712  PSNR Mean Y:49.07 U:52.00 V:48.04 Avg:49.23 Global:49.19
[libx264 @ 0x55b7192d0c60] frame P:77    Avg QP:23.27  size:   798  PSNR Mean Y:47.79 U:51.13 V:48.06 Avg:48.24 Global:48.18
[libx264 @ 0x55b7192d0c60] frame B:221   Avg QP:29.44  size:   192  PSNR Mean Y:47.57 U:51.03 V:47.97 Avg:48.05 Global:47.99
[libx264 @ 0x55b7192d0c60] consecutive B-frames:  0.7%  2.7%  2.0% 94.7%
[libx264 @ 0x55b7192d0c60] mb I  I16..4: 31.6% 39.0% 29.4%
[libx264 @ 0x55b7192d0c60] mb P  I16..4:  3.7%  1.3%  0.2%  P16..4: 31.8%  9.6%  2.0%  0.0%  0.0%    skip:51.5%
[libx264 @ 0x55b7192d0c60] mb B  I16..4:  0.2%  0.0%  0.0%  B16..8: 27.7%  2.1%  0.0%  direct: 0.0%  skip:70.0%  L0:49.2% L1:49.4% BI: 1.4%
[libx264 @ 0x55b7192d0c60] 8x8 transform intra:27.7% inter:77.3%
[libx264 @ 0x55b7192d0c60] coded y,uvDC,uvAC intra: 15.6% 39.7% 14.1% inter: 2.7% 4.2% 0.1%
[libx264 @ 0x55b7192d0c60] i16 v,h,dc,p: 21% 61% 14%  5%
[libx264 @ 0x55b7192d0c60] i8 v,h,dc,ddl,ddr,vr,hd,vl,hu:  5% 21% 65%  1%  1%  0%  1%  1%  5%
[libx264 @ 0x55b7192d0c60] i4 v,h,dc,ddl,ddr,vr,hd,vl,hu:  8% 61% 17%  1%  1%  1%  4%  1%  7%
[libx264 @ 0x55b7192d0c60] i8c dc,h,v,p: 42% 50%  6%  2%
[libx264 @ 0x55b7192d0c60] Weighted P-Frames: Y:1.3% UV:0.0%
[libx264 @ 0x55b7192d0c60] ref P L0: 57.3%  8.9% 25.8%  8.0%  0.1%
[libx264 @ 0x55b7192d0c60] ref B L0: 67.8% 24.7%  7.5%
[libx264 @ 0x55b7192d0c60] ref B L1: 83.6% 16.4%
[libx264 @ 0x55b7192d0c60] PSNR Mean Y:47.637 U:51.064 V:47.990 Avg:48.108 Global:48.044 kb/s:93.87
